<?xml version="1.0" encoding="utf-8"?>
<!-- Generator: Adobe Illustrator 16.0.4, SVG Export Plug-In . SVG Version: 6.00 Build 0)  -->
<!DOCTYPE svg PUBLIC "-//W3C//DTD SVG 1.1//EN" "http://www.w3.org/Graphics/SVG/1.1/DTD/svg11.dtd">
<svg version="1.1" id="Ebene_1" xmlns="http://www.w3.org/2000/svg" xmlns:xlink="http://www.w3.org/1999/xlink" x="0px" y="0px"
	 width="74px" height="35px" viewBox="0 0 74 35" style="enable-background:new 0 0 74 35;" xml:space="preserve">
<g>
	<polygon style="fill:#003468;" points="0,0 0,17 74,17 74,0 0,0 	"/>
	<path style="fill:#FF7500;" d="M0,35h65.3c4.9,0,8.7-3.9,8.7-8.5V18H0V35L0,35z"/>
	<g>
		<path style="fill:#003468;" d="M6.7,31.7H6.6c-1.5,0-2.8-1.1-2.8-2.8c0-1.1,1.6-1.1,1.6,0c0,0.8,0.5,1.2,1.2,1.2h0.1
			C7.4,30.1,8,29.7,8,29c0-1.8-4-1.9-4-4.5c0-0.2,0-0.1,0-0.3c0-1.5,1.5-2.4,2.7-2.4h0.1c1.4,0,2.7,0.9,2.7,2.2c0,1-1.6,1.1-1.6,0
			c0-0.4-0.4-0.7-1.1-0.7H6.6c-0.6,0-1.1,0.3-1.1,0.9c0,0.2,0,0,0,0.2c0,1.1,4,1.6,4,4.5C9.6,30.6,8.3,31.7,6.7,31.7L6.7,31.7z"/>
		<path style="fill:#003468;" d="M13.7,31.7h-0.1c-1.5,0-2.8-1.2-2.8-2.7v-4.4c0-1.6,1.3-2.7,2.8-2.7h0.1c1.4,0,2.6,1,2.8,2.3
			c0,0,0,0.1,0,0.1c0,0.5-0.4,0.8-0.8,0.8c-0.4,0-0.7-0.2-0.8-0.7c-0.1-0.6-0.6-1-1.2-1h-0.1c-0.7,0-1.2,0.5-1.2,1.1V29
			c0,0.7,0.5,1.1,1.2,1.1h0.1c0.6,0,1.1-0.4,1.2-1c0.1-0.5,0.4-0.7,0.8-0.7c0.4,0,0.8,0.3,0.8,0.8c0,0.1,0,0.1,0,0.2
			C16.3,30.7,15.1,31.7,13.7,31.7L13.7,31.7z"/>
		<path style="fill:#003468;" d="M20.6,31.7h-0.1c-1.5,0-2.8-1.2-2.8-2.7v-4.4c0-1.6,1.3-2.7,2.8-2.7h0.1c1.5,0,2.8,1.2,2.8,2.7V29
			C23.4,30.5,22.1,31.7,20.6,31.7L20.6,31.7z M21.7,24.6c0-0.7-0.5-1.1-1.2-1.1h-0.1c-0.7,0-1.2,0.5-1.2,1.1V29
			c0,0.7,0.5,1.1,1.2,1.1h0.1c0.7,0,1.2-0.5,1.2-1.1V24.6L21.7,24.6z"/>
		<path style="fill:#003468;" d="M27.9,31.7h-0.1c-1.5,0-2.8-1.3-2.8-2.8v-6.2c0-0.5,0.4-0.8,0.8-0.8s0.8,0.3,0.8,0.8v6.2
			c0,0.6,0.5,1.2,1.2,1.2h0.1c0.7,0,1.2-0.5,1.2-1.2v-6.2c0-0.5,0.4-0.8,0.8-0.8c0.4,0,0.8,0.3,0.8,0.8v6.2
			C30.7,30.5,29.5,31.7,27.9,31.7L27.9,31.7z"/>
		<path style="fill:#003468;" d="M36.4,23.6h-1.1v7.3c0,0.5-0.4,0.8-0.8,0.8c-0.4,0-0.8-0.3-0.8-0.8v-7.3h-1.1
			c-0.5,0-0.8-0.4-0.8-0.8c0-0.4,0.3-0.8,0.8-0.8h3.8c0.5,0,0.8,0.4,0.8,0.8C37.2,23.2,37,23.6,36.4,23.6L36.4,23.6z"/>
		<path style="fill:#003468;" d="M43.9,31.6h-3.6c-0.5,0-0.8-0.5-0.8-1c0-0.2,0-0.4,0.1-0.5l3.2-5.1c0.2-0.3,0.2-0.4,0.2-0.6v-0.1
			c0-0.4-0.4-0.8-0.8-0.8h0c-0.5,0-0.8,0.4-0.8,0.8v0.2c0,0.5-0.4,0.8-0.8,0.8s-0.8-0.3-0.8-0.8v-0.2c0-1.4,1.1-2.4,2.4-2.4h0
			c1.3,0,2.4,1,2.4,2.4l0,0.2c0,0.5-0.2,1-0.5,1.5L41.5,30h2.4c0.5,0,0.8,0.4,0.8,0.8C44.7,31.2,44.5,31.6,43.9,31.6L43.9,31.6z"/>
		<path style="fill:#003468;" d="M50.3,29.7H50v1.2c0,0.5-0.4,0.8-0.8,0.8c-0.4,0-0.8-0.3-0.8-0.8v-1.2h-2.2c-0.6,0-0.9-0.3-0.9-0.9
			c0-0.1,0-0.3,0.1-0.4l2.6-6.1c0.2-0.4,0.4-0.5,0.7-0.5c0.4,0,0.8,0.3,0.8,0.8c0,0.1,0,0.2-0.1,0.3l-2.3,5.1h1.2v-0.8
			c0-0.5,0.4-0.8,0.8-0.8c0.4,0,0.8,0.3,0.8,0.8v0.8h0.3c0.5,0,0.8,0.4,0.8,0.8C51.1,29.3,50.8,29.7,50.3,29.7L50.3,29.7z"/>
	</g>
	<path style="fill:#FFFFFF;" d="M10.2,13.8c-0.3,0-0.6-0.2-0.7-0.6l-0.5-1.7H6.2l-0.5,1.7c-0.1,0.4-0.4,0.6-0.8,0.6
		c-0.4,0-0.8-0.3-0.8-0.8c0-0.1,0-0.2,0-0.3l2.5-8.1C6.9,4,7.2,3.9,7.6,3.9c0.3,0,0.7,0.1,0.9,0.7l2.5,8.1c0,0.1,0,0.2,0,0.3
		C11,13.5,10.6,13.8,10.2,13.8L10.2,13.8z M7.6,6.9l-0.9,3h1.8L7.6,6.9L7.6,6.9z"/>
	<path style="fill:#FFFFFF;" d="M15.1,13.8H15c-1.5,0-2.8-1.3-2.8-2.8V4.7c0-0.5,0.4-0.8,0.8-0.8c0.4,0,0.8,0.3,0.8,0.8V11
		c0,0.6,0.5,1.2,1.2,1.2h0.1c0.7,0,1.2-0.5,1.2-1.2V4.7c0-0.5,0.4-0.8,0.8-0.8s0.8,0.3,0.8,0.8V11C17.9,12.5,16.6,13.8,15.1,13.8
		L15.1,13.8z"/>
	<path style="fill:#FFFFFF;" d="M23.7,5.6h-1.1V13c0,0.5-0.4,0.8-0.8,0.8c-0.4,0-0.8-0.3-0.8-0.8V5.6h-1.1c-0.5,0-0.8-0.4-0.8-0.8
		c0-0.4,0.3-0.8,0.8-0.8h3.8c0.5,0,0.8,0.4,0.8,0.8C24.5,5.2,24.2,5.6,23.7,5.6L23.7,5.6z"/>
	<path style="fill:#FFFFFF;" d="M28.4,13.8h-0.1c-1.5,0-2.8-1.2-2.8-2.7V6.7c0-1.6,1.3-2.7,2.8-2.7h0.1c1.5,0,2.8,1.2,2.8,2.7V11
		C31.2,12.6,29.9,13.8,28.4,13.8L28.4,13.8z M29.6,6.7c0-0.7-0.5-1.1-1.2-1.1h-0.1c-0.7,0-1.2,0.5-1.2,1.1V11c0,0.7,0.5,1.1,1.2,1.1
		h0.1c0.7,0,1.2-0.5,1.2-1.1V6.7L29.6,6.7z"/>
</g>
</svg>
